<svg xmlns="http://www.w3.org/2000/svg" viewBox="199 137 135 10" width="500" height="410"><path d="m272.945 128.315 -7.65 0.57v28.87l-7.88 0.685v-28.965l-7.65 0.57v30.035a6 6 0 0 0 1.79 4.32 6.1 6.1 0 0 0 4.36 1.765q0.27 0 0.545 -0.025l20.59 -1.79v-7.615l-4.105 0.36zm-47.545 -19.26h-0.01v19.94l-13.095 1.175 -0.25 7.555 13.35 -1.16v4.485l-14.025 1.22c-3 0.275 -5.305 2.765 -5.325 5.755v12.645a5.4 5.4 0 0 0 1.61 3.88 5.5 5.5 0 0 0 3.915 1.585h0.485l13.345 -1.16v20.16l-25.35 1.915V110.95zm0.65 39v8.955l-12 1.045V149.1zm12.85 -20.515q-0.24 -0.005 -0.49 0.02l-13.36 1.195v7.64l11.705 -1.025v4.52l-11.705 1.025v7.67l11.705 -1.025v8.755l-11.705 1.025v7.67l12.48 -1.115 1.55 2.28a5.865 5.865 0 0 0 5.33 -5.795v-27.36a5.5 5.5 0 0 0 -1.61 -3.885 5.5 5.5 0 0 0 -3.9 -1.595m52.15 -39.485 -66 5.34v15.285l51.695 -3.895v51.895l3.775 -0.33v-28.87l7.655 -0.575v30.43a6.63 6.63 0 0 1 -6.015 6.54l-5.415 0.47v17.055l-51.695 3.875v10.77l66 -5.34zm9.705 55.615v-8.745l23.555 -2.045v8.75l-23.555 2.045zm-1.665 -8.6 -0.335 -3.82zm27.41 -10.015h-0.49l-27.595 2.41a5.875 5.875 0 0 0 -5.365 5.79v27.305a5.45 5.45 0 0 0 1.625 3.9 5.5 5.5 0 0 0 3.945 1.595h0.49l27.575 -2.39 0.255 -7.605 -26.165 2.19v-6.915l25.91 -2.245a5.875 5.875 0 0 0 5.365 -5.79v-12.73a5.45 5.45 0 0 0 -1.625 -3.9 5.5 5.5 0 0 0 -3.945 -1.595" fill="#fff" style="stroke-width:1"/></svg>