<svg width="170" height="29" viewBox="0 0 170 29" fill="none" xmlns="http://www.w3.org/2000/svg">
<path d="M162.179 1.00154L159.603 4.55583C159.548 4.63036 159.548 4.72819 159.603 4.80272L162.22 8.55267C162.511 8.96726 162.22 9.54489 161.719 9.54489H160.354C160.144 9.54489 159.953 9.43775 159.839 9.26073L158.347 6.90828C158.265 6.78251 158.087 6.78251 158.005 6.90828L156.499 9.26073C156.385 9.43775 156.194 9.54489 155.985 9.54489H154.615C154.114 9.54489 153.827 8.96726 154.114 8.55267L156.722 4.80272C156.772 4.72819 156.772 4.63036 156.722 4.55583L154.15 1.00154C153.85 0.586948 154.141 0 154.642 0H155.998C156.198 0 156.385 0.0978247 156.499 0.265524L158.01 2.47356C158.092 2.59468 158.265 2.59468 158.347 2.47356L159.839 0.270182C159.953 0.102483 160.144 0 160.345 0H161.696C162.201 0 162.488 0.586948 162.188 1.00154H162.179ZM167.581 0.0698748C167.062 0.0698748 166.561 0.167699 166.074 0.35869C165.974 0.395957 165.879 0.44254 165.788 0.489123C165.788 0.218941 165.574 0 165.31 0H163.899C163.635 0 163.421 0.218941 163.421 0.489123V8.91601C163.421 9.26073 163.694 9.54489 164.036 9.54489H165.173C165.51 9.54489 165.788 9.26539 165.788 8.91601V4.3136C165.788 4.06205 165.833 3.81982 165.924 3.59622C166.015 3.37262 166.143 3.17697 166.307 3.00927C166.47 2.84157 166.657 2.7158 166.88 2.61797C167.098 2.52481 167.335 2.47822 167.581 2.47822H169.055C169.392 2.47822 169.67 2.19872 169.67 1.84935V0.694089C169.67 0.349374 169.397 0.0652166 169.055 0.0652166H167.581V0.0698748Z" fill="#F9F9F9"/>
<path d="M11.3408 1.09907C11.3408 0.360627 12.0449 -0.163307 12.732 0.0637718L24.4843 3.94753C24.9235 4.09267 25.2211 4.51083 25.2211 4.98282V23.2686C25.2211 23.7402 24.9239 24.1582 24.4851 24.3036L12.7328 28.1978C12.0455 28.4256 11.3408 27.9016 11.3408 27.1628V1.09907Z" fill="#F73558"/>
<path fill-rule="evenodd" clip-rule="evenodd" d="M8.8325 3.72474L6.42637 2.94162C5.74013 2.71826 5.03967 3.24197 5.03967 3.97838V24.2707C5.03967 25.0077 5.74128 25.5315 6.42781 25.307L8.8325 24.5205V3.72474Z" fill="#F73558"/>
<path fill-rule="evenodd" clip-rule="evenodd" d="M2.52141 6.49891L1.39518 6.1217C0.707245 5.89128 0 6.41542 0 7.15567V21.1027C0 21.8412 0.704036 22.3651 1.39118 22.138L2.52141 21.7645V6.49891Z" fill="#F73558"/>
<path d="M57.6459 23.4283H55.4063C54.7448 23.4283 54.2108 22.8823 54.2108 22.2059V1.2724C54.2108 0.595967 54.7448 0.0499268 55.4063 0.0499268H57.6459C58.3074 0.0499268 58.8413 0.595967 58.8413 1.2724V5.5109C58.8413 5.57609 58.9131 5.61277 58.9649 5.57202C59.4789 5.19305 60.0089 4.92003 60.5509 4.75703C61.1407 4.57774 61.7384 4.48809 62.3481 4.48809C63.4679 4.48809 64.5199 4.70406 65.5042 5.14008C66.4885 5.57202 67.3453 6.17103 68.0745 6.92489C68.8038 7.68283 69.3816 8.56709 69.804 9.57767C70.2264 10.5883 70.4416 11.6681 70.4416 12.8132V22.2059C70.4416 22.8823 69.9076 23.4283 69.2461 23.4283H66.9747C66.3132 23.4283 65.7792 22.8823 65.7792 22.2059V12.8132H65.815C65.815 12.3282 65.7234 11.8678 65.5441 11.4358C65.3647 11.0039 65.1137 10.6249 64.7989 10.2989C64.4841 9.97701 64.1135 9.72029 63.695 9.53692C63.2766 9.35355 62.8303 9.25983 62.3561 9.25983C61.8819 9.25983 61.4117 9.35355 60.9813 9.53692C60.5509 9.72029 60.1803 9.97701 59.8615 10.2989C59.5467 10.6249 59.2956 10.9998 59.1163 11.4358C58.937 11.8678 58.8453 12.3282 58.8453 12.8132V22.2059C58.8453 22.8823 58.3113 23.4283 57.6498 23.4283H57.6459Z" fill="#F9F9F9"/>
<path d="M88.8772 4.84862H86.6655C86.1714 4.84862 85.749 5.15831 85.5697 5.5984C85.5497 5.64323 85.5019 5.6636 85.4621 5.63915C85.1592 5.468 84.8484 5.30501 84.5176 5.17053C83.4138 4.71007 82.2263 4.48187 80.963 4.48187C79.6998 4.48187 78.5282 4.72637 77.4244 5.21536C76.3205 5.70435 75.3522 6.37671 74.5273 7.23245C73.6984 8.08818 73.0489 9.11099 72.5707 10.2886C72.0925 11.4704 71.8534 12.754 71.8534 14.1394C71.8534 15.5249 72.0925 16.7718 72.5707 17.9454C73.0489 19.119 73.7024 20.1377 74.5273 20.9935C75.3562 21.8492 76.3205 22.5256 77.4244 23.0187C78.5282 23.5118 79.7078 23.7603 80.963 23.7603C82.2183 23.7603 83.4138 23.5118 84.5176 23.0187C84.8364 22.8761 85.1433 22.7131 85.4382 22.5379C85.482 22.5134 85.5338 22.5379 85.5497 22.5827C85.7171 23.0513 86.1515 23.3855 86.6655 23.3855H88.8772C89.5387 23.3855 90.0727 22.8394 90.0727 22.163V6.07109C90.0727 5.39466 89.5387 4.84862 88.8772 4.84862ZM85.1074 16.1525C84.8683 16.7637 84.5455 17.2812 84.1391 17.7091C83.7286 18.1369 83.2544 18.4711 82.7084 18.7074C82.1625 18.9438 81.5807 19.062 80.963 19.062C80.3454 19.062 79.7636 18.9356 79.2176 18.6789C78.6717 18.4263 78.1975 18.0799 77.795 17.6398C77.3925 17.1997 77.0737 16.6822 76.8426 16.0832C76.6114 15.4842 76.4959 14.8363 76.4959 14.1354C76.4959 13.3897 76.6114 12.7173 76.8426 12.1142C77.0737 11.5111 77.3925 10.9895 77.795 10.5576C78.1975 10.1216 78.6717 9.7915 79.2176 9.55923C79.7636 9.32696 80.3454 9.21286 80.963 9.21286C81.5807 9.21286 82.1625 9.32696 82.7084 9.55923C83.2544 9.7915 83.7326 10.1216 84.1391 10.5576C84.5455 10.9936 84.8683 11.5111 85.1074 12.1142C85.3465 12.7173 85.4621 13.3937 85.4621 14.1354C85.4621 14.877 85.3425 15.5412 85.1074 16.1484V16.1525Z" fill="#F9F9F9"/>
<path d="M110.037 10.1786C109.559 8.99282 108.909 7.97409 108.088 7.13058C107.267 6.28299 106.303 5.631 105.199 5.17054C104.095 4.71007 102.908 4.48187 101.644 4.48187C100.381 4.48187 99.2096 4.72637 98.1058 5.21536C97.779 5.35798 97.4722 5.52505 97.1693 5.70435C97.1255 5.7288 97.0737 5.70435 97.0577 5.65953C96.8904 5.19091 96.456 4.85677 95.938 4.85677H93.7263C93.0648 4.85677 92.5308 5.40281 92.5308 6.07924V27.0168C92.5308 27.6932 93.0648 28.2393 93.7263 28.2393H95.938C96.5995 28.2393 97.1334 27.6932 97.1334 27.0168V22.6561C97.1334 22.5949 97.1972 22.5542 97.253 22.5868C97.528 22.7457 97.8109 22.8965 98.1058 23.0269C99.2096 23.5199 100.389 23.7685 101.644 23.7685C102.9 23.7685 104.095 23.5199 105.199 23.0269C106.303 22.5338 107.267 21.8574 108.088 21.0016C108.909 20.1459 109.559 19.1272 110.037 17.9536C110.515 16.78 110.754 15.5086 110.754 14.1476C110.754 12.6929 110.515 11.3726 110.037 10.1868V10.1786ZM105.789 16.1525C105.55 16.7637 105.227 17.2812 104.82 17.7091C104.41 18.137 103.936 18.4711 103.39 18.7074C102.844 18.9438 102.262 19.062 101.644 19.062C101.027 19.062 100.445 18.9356 99.899 18.6789C99.3531 18.4263 98.8789 18.0799 98.4764 17.6398C98.0739 17.1997 97.7551 16.6822 97.524 16.0832C97.2928 15.4842 97.1773 14.8363 97.1773 14.1354C97.1773 13.3897 97.2928 12.7173 97.524 12.1142C97.7551 11.5111 98.0739 10.9895 98.4764 10.5576C98.8789 10.1216 99.3531 9.7915 99.899 9.55923C100.445 9.32696 101.027 9.21286 101.644 9.21286C102.262 9.21286 102.844 9.32696 103.39 9.55923C103.936 9.7915 104.414 10.1216 104.82 10.5576C105.227 10.9936 105.55 11.5111 105.789 12.1142C106.028 12.7173 106.143 13.3937 106.143 14.1354C106.143 14.877 106.024 15.5412 105.789 16.1484V16.1525Z" fill="#F9F9F9"/>
<path d="M52.3554 15.1824C52.196 14.7994 52.0047 14.4449 51.7816 14.1148H51.7855C51.6142 13.8948 51.4349 13.6869 51.2316 13.4995C50.7096 13.0146 50.0999 12.6356 49.3985 12.3626C48.6972 12.0896 47.952 11.9551 47.159 11.9551H42.3412C42.0264 11.9551 41.7514 11.8369 41.5283 11.6006C41.3011 11.3642 41.1895 11.079 41.1895 10.7408C41.1895 10.4026 41.3131 10.1173 41.5601 9.88097C41.7793 9.66907 42.0742 9.56312 42.3731 9.56312H50.5263C51.1878 9.56312 51.7218 9.01708 51.7218 8.34065V6.06684C51.7218 5.3904 51.1878 4.84436 50.5263 4.84436H42.3452C41.5442 4.84436 40.791 4.99921 40.0897 5.30483C39.3883 5.61045 38.7786 6.03016 38.2566 6.56398C37.7346 7.09779 37.3281 7.72126 37.0253 8.43844C36.7264 9.15563 36.575 9.92579 36.575 10.7449C36.575 11.5639 36.7264 12.3341 37.0253 13.0513C37.1847 13.4343 37.3759 13.7888 37.5991 14.1189H37.5951C37.7665 14.3389 37.9458 14.5468 38.149 14.7342C38.671 15.2191 39.2807 15.5981 39.9821 15.8711C40.6834 16.1441 41.4286 16.2786 42.2216 16.2786H47.0395C47.3543 16.2786 47.6292 16.3968 47.8524 16.6331C48.0795 16.8695 48.1911 17.1547 48.1911 17.4929C48.1911 17.8311 48.0676 18.1164 47.8205 18.3527C47.6013 18.5646 47.3064 18.6706 47.0076 18.6706H37.7744C37.1129 18.6706 36.5789 19.2166 36.5789 19.8931V22.1669C36.5789 22.8433 37.1129 23.3893 37.7744 23.3893H47.0395C47.8404 23.3893 48.5936 23.2345 49.2949 22.9289C49.9963 22.6233 50.606 22.2035 51.128 21.6697C51.6501 21.14 52.0565 20.5125 52.3594 19.7953C52.6582 19.0781 52.8097 18.3079 52.8097 17.4889C52.8097 16.6698 52.6582 15.8996 52.3594 15.1824H52.3554Z" fill="#F9F9F9"/>
<path d="M147.077 15.1868C146.917 14.8038 146.726 14.4493 146.503 14.1192H146.507C146.335 13.8992 146.156 13.6913 145.953 13.5039C145.431 13.019 144.821 12.64 144.12 12.367C143.418 12.094 142.673 11.9595 141.88 11.9595H137.062C136.748 11.9595 136.473 11.8413 136.249 11.605C136.022 11.3686 135.911 11.0834 135.911 10.7452C135.911 10.407 136.034 10.1217 136.281 9.88536C136.5 9.67347 136.795 9.56752 137.094 9.56752H145.247C145.909 9.56752 146.443 9.02148 146.443 8.34504V6.07123C146.443 5.3948 145.909 4.84875 145.247 4.84875H137.062C136.261 4.84875 135.508 5.0036 134.807 5.30922C134.105 5.61484 133.496 6.03456 132.974 6.56837C132.452 7.10219 132.045 7.72565 131.742 8.44284C131.444 9.16003 131.292 9.93019 131.292 10.7492C131.292 11.5683 131.444 12.3385 131.742 13.0557C131.902 13.4387 132.093 13.7932 132.316 14.1233H132.312C132.484 14.3433 132.663 14.5512 132.866 14.7386C133.388 15.2235 133.998 15.6025 134.699 15.8755C135.401 16.1485 136.146 16.283 136.939 16.283H141.757C142.071 16.283 142.346 16.4012 142.57 16.6375C142.797 16.8739 142.908 17.1591 142.908 17.4973C142.908 17.8355 142.785 18.1208 142.538 18.3571C142.318 18.569 142.024 18.675 141.725 18.675H132.492C131.83 18.675 131.296 19.221 131.296 19.8975V22.1713C131.296 22.8477 131.83 23.3937 132.492 23.3937H141.757C142.558 23.3937 143.311 23.2389 144.012 22.9333C144.713 22.6277 145.323 22.2079 145.845 21.6741C146.367 21.1444 146.774 20.5168 147.077 19.7997C147.375 19.0825 147.527 18.3123 147.527 17.4932C147.527 16.6742 147.375 15.904 147.077 15.1868Z" fill="#F9F9F9"/>
<path d="M130.254 14.1394C130.254 12.6847 130.015 11.3644 129.537 10.1786C129.059 8.9928 128.409 7.97407 127.588 7.13057C126.767 6.28299 125.803 5.631 124.699 5.17053C123.595 4.71007 122.408 4.48187 121.145 4.48187C119.881 4.48187 118.71 4.72637 117.606 5.21536C116.502 5.70435 115.534 6.37671 114.709 7.23244C113.88 8.08817 113.231 9.11098 112.752 10.2886C112.274 11.4704 112.035 12.754 112.035 14.1394C112.035 15.5249 112.274 16.7718 112.752 17.9454C113.231 19.119 113.884 20.1377 114.709 20.9934C115.538 21.8532 116.502 22.5256 117.606 23.0227C118.71 23.5158 119.889 23.7644 121.145 23.7644C122.4 23.7644 123.595 23.5158 124.699 23.0227C125.46 22.6804 126.154 22.2567 126.783 21.7432C126.879 21.6658 126.967 21.5884 126.967 21.5884C127.106 21.4661 127.234 21.3479 127.353 21.2338C127.72 20.8753 127.676 20.2599 127.254 19.9666C126.401 19.3716 125.544 18.7726 124.691 18.1777C124.408 17.978 124.034 17.9984 123.759 18.2062C123.484 18.414 123.205 18.5729 122.89 18.7115C122.344 18.9478 121.762 19.066 121.145 19.066C120.527 19.066 119.945 18.9397 119.399 18.683C118.853 18.4303 118.379 18.0839 117.977 17.6438C117.694 17.3342 117.451 16.9796 117.251 16.5925C117.223 16.5395 117.263 16.4703 117.323 16.4703C121.212 16.4621 125.106 16.454 128.995 16.4458C129.601 16.4458 130.111 15.9813 130.183 15.366C130.23 14.9666 130.254 14.5591 130.254 14.1435V14.1394ZM117.973 10.5616C118.375 10.1256 118.849 9.79556 119.395 9.56329C119.941 9.33102 120.523 9.21692 121.141 9.21692C121.758 9.21692 122.34 9.3351 122.886 9.56329C123.432 9.79556 123.91 10.1297 124.317 10.5616C124.612 10.8754 124.863 11.2381 125.07 11.6456C125.098 11.6985 125.058 11.7678 124.998 11.7678H117.307C117.247 11.7678 117.208 11.7026 117.235 11.6456C117.439 11.2422 117.682 10.8795 117.977 10.5616H117.973Z" fill="#F9F9F9"/>
</svg>
